<?xml version="1.0"?>
<svg xmlns="http://www.w3.org/2000/svg" xmlns:xlink="http://www.w3.org/1999/xlink" version="1.1" id="Capa_1" x="0px" y="0px" viewBox="0 0 496 496" style="enable-background:new 0 0 496 496;" xml:space="preserve" width="512px" height="512px" class="hovered-paths"><g><path style="fill:#1968C0" d="M264,200c0-17.672,14.328-32,32-32h39.112l-0.032-0.88c-9.024-81.608-81.392-141.952-165.04-134.496  C99.032,38.952,40.952,95.648,32.984,166.496C22.688,258.104,94.416,336,184,336c28.464,0,55.984-7.952,80-22.848V200z" data-original="#F0BC5E" class="" data-old_color="#F0BC5E"/><path d="M456,160h-89.752C354.376,68.312,277.392,0,184,0C82.544,0,0,82.536,0,184s82.544,184,184,184  c25.12,0,49.272-4.952,72-14.664V456c0,22.056,17.944,40,40,40h160c22.056,0,40-17.944,40-40V200C496,177.944,478.056,160,456,160z   M256,200v135.76C233.448,346.488,209.264,352,184,352c-92.64,0-168-75.368-168-168S91.36,16,184,16  c84.568,0,154.392,61.344,166.112,144H296C273.944,160,256,177.944,256,200z M480,456c0,13.232-10.768,24-24,24H296  c-13.232,0-24-10.768-24-24V200c0-13.232,10.768-24,24-24h160c13.232,0,24,10.768,24,24V456z" data-original="#000000" class="active-path" style="fill:#313030" data-old_color="#000000"/><path d="M352,464h48v-48h-48V464z M368,432h16v16h-16V432z" data-original="#000000" class="active-path" style="fill:#313030" data-old_color="#000000"/><path d="M288,464h48v-48h-48V464z M304,432h16v16h-16V432z" data-original="#000000" class="active-path" style="fill:#313030" data-old_color="#000000"/><path d="M352,400h48v-48h-48V400z M368,368h16v16h-16V368z" data-original="#000000" class="active-path" style="fill:#313030" data-old_color="#000000"/><path d="M416,464h48V352h-48V464z M432,368h16v80h-16V368z" data-original="#000000" class="active-path" style="fill:#313030" data-old_color="#000000"/><path d="M288,400h48v-48h-48V400z M304,368h16v16h-16V368z" data-original="#000000" class="active-path" style="fill:#313030" data-old_color="#000000"/><path d="M352,336h48v-48h-48V336z M368,304h16v16h-16V304z" data-original="#000000" class="active-path" style="fill:#313030" data-old_color="#000000"/><path d="M416,336h48v-48h-48V336z M432,304h16v16h-16V304z" data-original="#000000" class="active-path" style="fill:#313030" data-old_color="#000000"/><path d="M288,336h48v-48h-48V336z M304,304h16v16h-16V304z" data-original="#000000" class="active-path" style="fill:#313030" data-old_color="#000000"/><path d="M288,272h176v-80H288V272z M304,208h144v48H304V208z" data-original="#000000" class="active-path" style="fill:#313030" data-old_color="#000000"/><path d="M232,152c0-13.016-6.344-24.488-16-31.792V96h-16v16.808c-2.584-0.528-5.264-0.808-8-0.808h-24V96h-16v16h-16v144h16v16h16  v-16h24c2.736,0,5.416-0.28,8-0.808V272h16v-24.208c9.656-7.312,16-18.784,16-31.792c0-13.072-6.304-24.696-16.024-32  C225.696,176.696,232,165.072,232,152z M216,216c0,13.232-10.768,24-24,24h-40v-48h40C205.232,192,216,202.768,216,216z M192,176  h-40v-48h40c13.232,0,24,10.768,24,24S205.232,176,192,176z" data-original="#000000" class="active-path" style="fill:#313030" data-old_color="#000000"/><rect x="32" y="352" width="16" height="16" data-original="#000000" class="active-path" style="fill:#313030" data-old_color="#000000"/><rect x="32" y="384" width="16" height="16" data-original="#000000" class="active-path" style="fill:#313030" data-old_color="#000000"/><rect x="48" y="368" width="16" height="16" data-original="#000000" class="active-path" style="fill:#313030" data-old_color="#000000"/><rect x="16" y="368" width="16" height="16" data-original="#000000" class="active-path" style="fill:#313030" data-old_color="#000000"/><rect x="208" y="384" width="16" height="16" data-original="#000000" class="active-path" style="fill:#313030" data-old_color="#000000"/><rect x="208" y="416" width="16" height="16" data-original="#000000" class="active-path" style="fill:#313030" data-old_color="#000000"/><rect x="224" y="400" width="16" height="16" data-original="#000000" class="active-path" style="fill:#313030" data-old_color="#000000"/><rect x="192" y="400" width="16" height="16" data-original="#000000" class="active-path" style="fill:#313030" data-old_color="#000000"/><rect x="96" y="416" width="16" height="16" data-original="#000000" class="active-path" style="fill:#313030" data-old_color="#000000"/><rect x="96" y="448" width="16" height="16" data-original="#000000" class="active-path" style="fill:#313030" data-old_color="#000000"/><rect x="112" y="432" width="16" height="16" data-original="#000000" class="active-path" style="fill:#313030" data-old_color="#000000"/><rect x="80" y="432" width="16" height="16" data-original="#000000" class="active-path" style="fill:#313030" data-old_color="#000000"/><rect x="16" width="16" height="16" data-original="#000000" class="active-path" style="fill:#313030" data-old_color="#000000"/><rect x="16" y="32" width="16" height="16" data-original="#000000" class="active-path" style="fill:#313030" data-old_color="#000000"/><rect x="32" y="16" width="16" height="16" data-original="#000000" class="active-path" style="fill:#313030" data-old_color="#000000"/><rect y="16" width="16" height="16" data-original="#000000" class="active-path" style="fill:#313030" data-old_color="#000000"/><rect x="408" y="80" width="16" height="16" data-original="#000000" class="active-path" style="fill:#313030" data-old_color="#000000"/><rect x="408" y="112" width="16" height="16" data-original="#000000" class="active-path" style="fill:#313030" data-old_color="#000000"/><rect x="424" y="96" width="16" height="16" data-original="#000000" class="active-path" style="fill:#313030" data-old_color="#000000"/><rect x="392" y="96" width="16" height="16" data-original="#000000" class="active-path" style="fill:#313030" data-old_color="#000000"/><rect x="376" y="16" width="16" height="16" data-original="#000000" class="active-path" style="fill:#313030" data-old_color="#000000"/><rect x="376" y="48" width="16" height="16" data-original="#000000" class="active-path" style="fill:#313030" data-old_color="#000000"/><rect x="392" y="32" width="16" height="16" data-original="#000000" class="active-path" style="fill:#313030" data-old_color="#000000"/><rect x="360" y="32" width="16" height="16" data-original="#000000" class="active-path" style="fill:#313030" data-old_color="#000000"/></g> </svg>
